<svg xmlns="http://www.w3.org/2000/svg" xmlns:xlink="http://www.w3.org/1999/xlink" viewBox="0 0 215.79 174.42"><defs>


<style>

.cls-1,.cls-2,.cls-3{fill:none;stroke:#000;stroke-linecap:round;stroke-miterlimit:10;}.cls-1{stroke-width:3.19px;}.cls-2{stroke-width:4.26px;}.cls-3{stroke-width:5.32px;}.cls-4{fill:url(#Degradado_sin_nombre_10);}.cls-5{fill:#fff;}

#first-left,
#fourth-right { 
stroke: red;
transform-origin: center center; 
animation: moveLegs 0.3s ease infinite alternate; 
}

#second-left,
#first-right {
stroke: red;
transform-origin: center center; 
animation: moveLegs 0.4s ease infinite alternate; 
}

#third-left,
#second-right {
    stroke: red;
transform-origin: center center; 
animation: moveLegs 0.5s ease infinite alternate; 
}

#fourth-left,
#third-right{
stroke: red;
transform-origin: center center; 
animation: moveLegs 0.6s ease infinite alternate; 
}

#_404 {
stroke: red;
transform-origin: center center; 
animation: moveLegs 0.8s ease infinite alternate;  
}


@keyframes moveLegs {
    from {
        transform: rotate(0deg);
    }
    to {
        transform: rotate(10deg);
        stroke: blue;
    }
}


</style>


<linearGradient id="Degradado_sin_nombre_10" x1="80.5" y1="13.95" x2="132.91" y2="66.36" gradientTransform="matrix(0, 0.63, -1.42, 0, 144.73, -3.09)" gradientUnits="userSpaceOnUse"><stop offset="0"/><stop offset="0.76" stop-color="#020202"/><stop offset="0.77" stop-color="#020202"/><stop offset="0.86" stop-color="#040404"/><stop offset="0.89" stop-color="#0b0b0b"/><stop offset="0.91" stop-color="#161616"/><stop offset="0.93" stop-color="#272727"/><stop offset="0.94" stop-color="#3d3d3d"/><stop offset="0.96" stop-color="#595959"/><stop offset="0.97" stop-color="#797979"/><stop offset="0.98" stop-color="#9f9f9f"/><stop offset="0.99" stop-color="#cacaca"/><stop offset="1" stop-color="#f8f8f8"/><stop offset="1" stop-color="#fff"/></linearGradient></defs><g id="Capa_2" data-name="Capa 2"><g id="Left_Legs" data-name="Left Legs"><polyline id="first-left" class="cls-1" points="62.58 68.31 45.38 75.93 13.61 68.31"/><polyline id="second-left" class="cls-2" points="71.04 77.71 48.73 92.44 2.13 94.56"/><polyline id="third-left" class="cls-3" points="87.97 98.29 59.22 117.46 8.12 123.84"/><polyline id="fourth-left" class="cls-3" points="102.88 121.72 76.79 145.25 64.55 171.76"/></g><g id="Right_Legs" data-name="Right Legs"><polyline id="first-right" class="cls-1" points="97.95 43.95 113.17 32.9 122.53 1.6"/><polyline id="second-right" class="cls-2" points="106.58 50.3 131.47 40.55 160.05 3.68"/><polyline id="third-right" class="cls-3" points="128.81 74.77 158.51 57.1 186.32 13.76"/><polyline id="fourth-right" class="cls-3" points="155.25 87.62 184.44 68.07 213.13 62.66"/></g><g id="Colmillos"><polyline class="cls-1" points="66.98 25.09 77.63 28.29 77.63 36.76"/><polyline class="cls-1" points="57.32 31.46 57.82 42.56 66.04 44.63"/></g><g id="FatBody"><ellipse cx="120.28" cy="101.27" rx="37.38" ry="49.26" transform="matrix(0.76, -0.65, 0.65, 0.76, -36.94, 103.49)"/></g><g id="SlimBody"><ellipse class="cls-4" cx="87.54" cy="63.84" rx="29.91" ry="30.1" transform="matrix(0.5, -0.87, 0.87, 0.5, -11.51, 107.73)"/></g><g id="_404" data-name="404"><path class="cls-5" d="M120.16,125.23a1.44,1.44,0,0,1-1.13.34A1.6,1.6,0,0,1,118,125l-2.61-3-8,6.89a1.47,1.47,0,0,1-1.16.41,1.68,1.68,0,0,1-1-.48,1.53,1.53,0,0,1-.46-1l-1.19-20a2.18,2.18,0,0,1,.11-.77,1.6,1.6,0,0,1,.44-.63,1.34,1.34,0,0,1,1.13-.34,1.67,1.67,0,0,1,1.08.62l9.52,11,1.44-1.24a2.07,2.07,0,0,1,1.08-.51,1.29,1.29,0,0,1,1.1.56,1.32,1.32,0,0,1,.31,1.09,1.66,1.66,0,0,1-.58,1.07l-1.44,1.24,2.6,3a1.6,1.6,0,0,1,.41,1.15A1.5,1.5,0,0,1,120.16,125.23Zm-12.7.85-1.23-.11,7.21-6.21-8.53-9.9,1.57.32Z"/><path class="cls-5" d="M131.93,115.09a6,6,0,0,1-4.07,1.56,9.23,9.23,0,0,1-4.73-1.53A25.62,25.62,0,0,1,114.41,105a9.12,9.12,0,0,1-.81-4.91,6,6,0,0,1,2.15-3.8,6,6,0,0,1,4.09-1.53,9.43,9.43,0,0,1,4.76,1.55,22.05,22.05,0,0,1,5,4.44,21.7,21.7,0,0,1,3.65,5.59,9.49,9.49,0,0,1,.83,4.93A6,6,0,0,1,131.93,115.09Zm-2.15-2.5a3,3,0,0,0,1.05-2.48,8.06,8.06,0,0,0-1-3.39,23.12,23.12,0,0,0-6.09-7.07,8.23,8.23,0,0,0-3.21-1.54,3,3,0,0,0-2.61.66,2.93,2.93,0,0,0-1,2.47,8.06,8.06,0,0,0,1,3.4,21.34,21.34,0,0,0,2.7,3.87,20.81,20.81,0,0,0,3.43,3.24,7.63,7.63,0,0,0,3.2,1.51A3,3,0,0,0,129.78,112.59Z"/><path class="cls-5" d="M149.74,99.75a1.4,1.4,0,0,1-1.13.34,1.57,1.57,0,0,1-1.08-.57l-2.61-3-8,6.89a1.45,1.45,0,0,1-1.15.41,1.63,1.63,0,0,1-1-.48,1.58,1.58,0,0,1-.46-1l-1.19-20a2,2,0,0,1,.12-.77,1.42,1.42,0,0,1,.44-.63,1.34,1.34,0,0,1,1.12-.34,1.72,1.72,0,0,1,1.08.62l9.52,11L146.82,91a2,2,0,0,1,1.07-.51,1.27,1.27,0,0,1,1.1.56,1.33,1.33,0,0,1,.32,1.09,1.67,1.67,0,0,1-.59,1.07l-1.44,1.24,2.61,3a1.6,1.6,0,0,1,.4,1.16A1.46,1.46,0,0,1,149.74,99.75Zm-12.7.85-1.23-.11L143,94.28l-8.53-9.9,1.57.32Z"/></g></g></svg>