<svg xmlns="http://www.w3.org/2000/svg" viewBox="0 0 205.2 274.23"><defs><style>.cls-1{fill:#fff;}</style></defs><g id="Capa_2" data-name="Capa 2"><g id="Capa_1-2" data-name="Capa 1"><path class="cls-1" d="M192.8,52a93.35,93.35,0,0,0-35-38.2Q135.2,0,104.8,0,74,0,50.4,14.4a101.23,101.23,0,0,0-37,39.4Q0,78.81,0,111.6,0,144,14.2,169.2a102,102,0,0,0,39.2,39.4q25,14.21,57.4,14.2,18.8,0,39.2-7.4t33.6-18.6a11.53,11.53,0,0,0,4.6-9.6q-.21-5.59-5.4-10.4a14.09,14.09,0,0,0-9.6-3,16.34,16.34,0,0,0-10,3.8q-8.8,7.6-23.4,12.6a88.93,88.93,0,0,1-29,5q-24,0-42.4-10.8a78.14,78.14,0,0,1-29-29.6,82.87,82.87,0,0,1-10.12-33.2H190.8a14.47,14.47,0,0,0,10.4-3.8,13.42,13.42,0,0,0,4-10.2Q205.2,76.4,192.8,52ZM38.2,68.2A72.1,72.1,0,0,1,64.8,38.4Q82,27.6,104.8,27.6q22.4,0,38.6,10.4a68.57,68.57,0,0,1,25,28.8A86.64,86.64,0,0,1,176.31,96H29.84A89.88,89.88,0,0,1,38.2,68.2Z"/><path class="cls-1" d="M100.29,81.14l24.21-14a7.16,7.16,0,0,0,0-12.41l-24.21-14A7.16,7.16,0,0,0,89.55,47V74.94A7.16,7.16,0,0,0,100.29,81.14Z"/><path class="cls-1" d="M31.28,273.87a1.4,1.4,0,0,1-1.4-1.41v-25.3a1.35,1.35,0,0,1,.41-1,1.42,1.42,0,0,1,1-.4,1.33,1.33,0,0,1,1.26.72l12.14,24.12H43.45l11.92-24.12a1.39,1.39,0,0,1,1.26-.72A1.37,1.37,0,0,1,58,247.16v25.3a1.38,1.38,0,0,1-.4,1,1.31,1.31,0,0,1-1,.41,1.43,1.43,0,0,1-1-.41,1.39,1.39,0,0,1-.41-1V250.79l.61,0L45.18,272.54a1.32,1.32,0,0,1-1.22.68,1.35,1.35,0,0,1-1.3-.86L32,251l.72-.18v21.67a1.4,1.4,0,0,1-1.41,1.41Z"/><path class="cls-1" d="M78.19,274.23a15,15,0,0,1-5.76-1.08,13.54,13.54,0,0,1-7.54-7.6,16.07,16.07,0,0,1,0-11.48,13.62,13.62,0,0,1,7.54-7.6,15.82,15.82,0,0,1,11.49,0,13.83,13.83,0,0,1,4.57,3,13.5,13.5,0,0,1,3,4.57,15.93,15.93,0,0,1,0,11.48,13.54,13.54,0,0,1-3,4.58,14,14,0,0,1-4.57,3A15,15,0,0,1,78.19,274.23Zm0-2.66a11.87,11.87,0,0,0,4.61-.89,10.77,10.77,0,0,0,3.69-2.48,11.61,11.61,0,0,0,2.43-3.74,12.32,12.32,0,0,0,.86-4.67,12.17,12.17,0,0,0-.86-4.62,11.55,11.55,0,0,0-2.43-3.75,11.06,11.06,0,0,0-3.69-2.48,12.59,12.59,0,0,0-9.25,0,11.06,11.06,0,0,0-3.69,2.48,11.23,11.23,0,0,0-2.43,3.75,12.17,12.17,0,0,0-.87,4.62,12.32,12.32,0,0,0,.87,4.67,11.29,11.29,0,0,0,2.43,3.74,10.77,10.77,0,0,0,3.69,2.48A11.92,11.92,0,0,0,78.19,271.57Z"/><path class="cls-1" d="M107.32,273.87a1.34,1.34,0,0,1-1.3-.9L95.33,248a1.84,1.84,0,0,1-.06-1.6,1.27,1.27,0,0,1,1.21-.6,1.35,1.35,0,0,1,1.3.9l9.93,23.76h-.79l9.9-23.68a1.52,1.52,0,0,1,.54-.76,1.56,1.56,0,0,1,.86-.22,1.1,1.1,0,0,1,1.12.63,1.72,1.72,0,0,1,0,1.42L108.58,273a1.5,1.5,0,0,1-.54.7A1.39,1.39,0,0,1,107.32,273.87Z"/><path class="cls-1" d="M125.17,273.87a1.36,1.36,0,0,1-1-.4,1.37,1.37,0,0,1-.39-1v-25.3a1.37,1.37,0,0,1,.39-1,1.4,1.4,0,0,1,1-.4,1.37,1.37,0,0,1,1.41,1.41v25.3a1.38,1.38,0,0,1-.4,1A1.34,1.34,0,0,1,125.17,273.87Z"/><path class="cls-1" d="M135.18,273.87a1.36,1.36,0,0,1-1-.4,1.37,1.37,0,0,1-.39-1v-25.3a1.37,1.37,0,0,1,.39-1,1.4,1.4,0,0,1,1-.4h16.88a1.41,1.41,0,0,1,1,.38,1.32,1.32,0,0,1,0,1.93,1.37,1.37,0,0,1-1,.39H136.58v9.94h11.27a1.34,1.34,0,0,1,1,.4,1.32,1.32,0,0,1,.4,1,1.35,1.35,0,0,1-.4,1,1.38,1.38,0,0,1-1,.4H136.58v10h15.48a1.34,1.34,0,0,1,1,.4,1.23,1.23,0,0,1,.42.93,1.26,1.26,0,0,1-.42,1,1.41,1.41,0,0,1-1,.38Z"/><path class="cls-1" d="M167.33,274.23a13,13,0,0,1-4.27-.67,10.13,10.13,0,0,1-3.4-1.89,8.35,8.35,0,0,1-2.2-2.84,1.06,1.06,0,0,1,0-1.06,1.37,1.37,0,0,1,.91-.67,1.32,1.32,0,0,1,1,.11,1.68,1.68,0,0,1,.74.75,5.82,5.82,0,0,0,1.58,1.88,7.71,7.71,0,0,0,2.49,1.28,10.56,10.56,0,0,0,3.17.45,8.53,8.53,0,0,0,3.38-.63A5.33,5.33,0,0,0,173,269.1a4.92,4.92,0,0,0,.85-2.93,5.12,5.12,0,0,0-1.62-3.79,8.68,8.68,0,0,0-5.08-2,11.87,11.87,0,0,1-6.59-2.61,6.65,6.65,0,0,1-2.37-5.17,6.33,6.33,0,0,1,1.17-3.81,7.46,7.46,0,0,1,3.22-2.5,11.83,11.83,0,0,1,4.72-.89,9.71,9.71,0,0,1,6.42,2.29,9.17,9.17,0,0,1,2,2.25,1.47,1.47,0,0,1,.24,1.12,1.27,1.27,0,0,1-.63.82,1.45,1.45,0,0,1-1.1.08,1.49,1.49,0,0,1-.85-.69A8.42,8.42,0,0,0,172,249.7a5.76,5.76,0,0,0-2-1.17,8.29,8.29,0,0,0-2.77-.47,7.85,7.85,0,0,0-4.57,1.2,4,4,0,0,0-1.73,3.51,4.13,4.13,0,0,0,.65,2.25,5,5,0,0,0,2.14,1.77,13.34,13.34,0,0,0,4,1.09q4.5.66,6.68,2.76a7.29,7.29,0,0,1,2.18,5.49,8.13,8.13,0,0,1-.7,3.46,7,7,0,0,1-2,2.53,9,9,0,0,1-3,1.57A12.07,12.07,0,0,1,167.33,274.23Z"/></g></g></svg>