<svg xmlns="http://www.w3.org/2000/svg" viewBox="0 0 205.2 222.8"><defs><style>.cls-1{fill:#fff;}</style></defs><g id="Capa_2" data-name="Capa 2"><g id="Capa_1-2" data-name="Capa 1"><path class="cls-1" d="M192.8,52a93.35,93.35,0,0,0-35-38.2Q135.2,0,104.8,0,74,0,50.4,14.4a101.23,101.23,0,0,0-37,39.4Q0,78.81,0,111.6,0,144,14.2,169.2a102,102,0,0,0,39.2,39.4q25,14.21,57.4,14.2,18.8,0,39.2-7.4t33.6-18.6a11.53,11.53,0,0,0,4.6-9.6q-.21-5.59-5.4-10.4a14.09,14.09,0,0,0-9.6-3,16.34,16.34,0,0,0-10,3.8q-8.8,7.6-23.4,12.6a88.93,88.93,0,0,1-29,5q-24,0-42.4-10.8a78.14,78.14,0,0,1-29-29.6,82.87,82.87,0,0,1-10.12-33.2H190.8a14.47,14.47,0,0,0,10.4-3.8,13.42,13.42,0,0,0,4-10.2Q205.2,76.4,192.8,52ZM38.2,68.2A72.1,72.1,0,0,1,64.8,38.4Q82,27.6,104.8,27.6q22.4,0,38.6,10.4a68.57,68.57,0,0,1,25,28.8A86.64,86.64,0,0,1,176.31,96H29.84A89.88,89.88,0,0,1,38.2,68.2Z"/><path class="cls-1" d="M100.29,81.14l24.21-14a7.16,7.16,0,0,0,0-12.41l-24.21-14A7.16,7.16,0,0,0,89.55,47V74.94A7.16,7.16,0,0,0,100.29,81.14Z"/></g></g></svg>